<mxfile host="app.diagrams.net" agent="Mozilla/5.0 (Windows NT 10.0; Win64; x64) AppleWebKit/537.36 (KHTML, like Gecko) Chrome/135.0.0.0 Safari/537.36" version="26.2.14">
  <diagram id="9l0Rkt2jy4prdzlfz_VC" name="Страница — 1">
    <mxGraphModel dx="1950" dy="759" grid="1" gridSize="10" guides="1" tooltips="1" connect="1" arrows="1" fold="1" page="1" pageScale="1" pageWidth="827" pageHeight="1169" math="0" shadow="0">
      <root>
        <mxCell id="0" />
        <mxCell id="1" parent="0" />
        <mxCell id="-sFr-AM_DlU4L2YUzimp-1" value="Клиент" style="shape=umlActor;verticalLabelPosition=bottom;verticalAlign=top;html=1;outlineConnect=0;" vertex="1" parent="1">
          <mxGeometry x="245" y="10" width="30" height="60" as="geometry" />
        </mxCell>
        <mxCell id="-sFr-AM_DlU4L2YUzimp-2" value="АБС" style="rounded=1;whiteSpace=wrap;html=1;fillColor=#dae8fc;strokeColor=#6c8ebf;" vertex="1" parent="1">
          <mxGeometry x="370" y="270" width="120" height="500" as="geometry" />
        </mxCell>
        <mxCell id="-sFr-AM_DlU4L2YUzimp-3" value="Система колл центра" style="rounded=1;whiteSpace=wrap;html=1;fillColor=#dae8fc;strokeColor=#6c8ebf;" vertex="1" parent="1">
          <mxGeometry x="370" y="140" width="120" height="60" as="geometry" />
        </mxCell>
        <mxCell id="-sFr-AM_DlU4L2YUzimp-4" value="СМС шлюз" style="rounded=1;whiteSpace=wrap;html=1;fillColor=#dae8fc;strokeColor=#6c8ebf;" vertex="1" parent="1">
          <mxGeometry x="560" y="150" width="120" height="60" as="geometry" />
        </mxCell>
        <mxCell id="-sFr-AM_DlU4L2YUzimp-5" value="E-mail" style="rounded=1;whiteSpace=wrap;html=1;fillColor=#dae8fc;strokeColor=#6c8ebf;" vertex="1" parent="1">
          <mxGeometry x="-200" y="490" width="120" height="60" as="geometry" />
        </mxCell>
        <mxCell id="-sFr-AM_DlU4L2YUzimp-8" value="Сотрудник фронт офиса" style="shape=umlActor;verticalLabelPosition=bottom;verticalAlign=top;html=1;outlineConnect=0;whiteSpace=wrap;" vertex="1" parent="1">
          <mxGeometry x="70" y="310" width="30" height="60" as="geometry" />
        </mxCell>
        <mxCell id="-sFr-AM_DlU4L2YUzimp-9" value="Сотрудник управления обслуживания депозитных продуктов" style="shape=umlActor;verticalLabelPosition=bottom;verticalAlign=top;html=1;outlineConnect=0;whiteSpace=wrap;" vertex="1" parent="1">
          <mxGeometry x="70" y="470" width="30" height="60" as="geometry" />
        </mxCell>
        <mxCell id="-sFr-AM_DlU4L2YUzimp-10" value="Сотрудник управления обслуживания кредитных продуктов" style="shape=umlActor;verticalLabelPosition=bottom;verticalAlign=top;html=1;outlineConnect=0;whiteSpace=wrap;" vertex="1" parent="1">
          <mxGeometry x="70" y="665" width="30" height="60" as="geometry" />
        </mxCell>
        <mxCell id="-sFr-AM_DlU4L2YUzimp-12" value="Сотрудник колл-центра" style="shape=umlActor;verticalLabelPosition=bottom;verticalAlign=top;html=1;outlineConnect=0;whiteSpace=wrap;" vertex="1" parent="1">
          <mxGeometry x="70" y="140" width="30" height="60" as="geometry" />
        </mxCell>
        <mxCell id="-sFr-AM_DlU4L2YUzimp-14" value="" style="endArrow=classic;html=1;rounded=0;dashed=1;dashPattern=8 8;" edge="1" parent="1" source="-sFr-AM_DlU4L2YUzimp-1" target="-sFr-AM_DlU4L2YUzimp-12">
          <mxGeometry width="50" height="50" relative="1" as="geometry">
            <mxPoint x="280" y="290" as="sourcePoint" />
            <mxPoint x="110" y="150" as="targetPoint" />
            <Array as="points">
              <mxPoint x="85" y="40" />
            </Array>
          </mxGeometry>
        </mxCell>
        <mxCell id="-sFr-AM_DlU4L2YUzimp-15" value="Звонок" style="edgeLabel;html=1;align=center;verticalAlign=middle;resizable=0;points=[];" vertex="1" connectable="0" parent="-sFr-AM_DlU4L2YUzimp-14">
          <mxGeometry x="-0.0764" relative="1" as="geometry">
            <mxPoint as="offset" />
          </mxGeometry>
        </mxCell>
        <mxCell id="-sFr-AM_DlU4L2YUzimp-16" value="Зарегистрировать&lt;div&gt;обращение&lt;/div&gt;" style="endArrow=classic;html=1;rounded=0;entryX=0;entryY=0.5;entryDx=0;entryDy=0;" edge="1" parent="1" source="-sFr-AM_DlU4L2YUzimp-12" target="-sFr-AM_DlU4L2YUzimp-3">
          <mxGeometry width="50" height="50" relative="1" as="geometry">
            <mxPoint x="280" y="290" as="sourcePoint" />
            <mxPoint x="330" y="240" as="targetPoint" />
          </mxGeometry>
        </mxCell>
        <mxCell id="-sFr-AM_DlU4L2YUzimp-17" value="Зарегистрировать&lt;div&gt;обращение&lt;/div&gt;" style="endArrow=classic;html=1;rounded=0;" edge="1" parent="1" source="-sFr-AM_DlU4L2YUzimp-3" target="-sFr-AM_DlU4L2YUzimp-2">
          <mxGeometry width="50" height="50" relative="1" as="geometry">
            <mxPoint x="110" y="180" as="sourcePoint" />
            <mxPoint x="270" y="180" as="targetPoint" />
          </mxGeometry>
        </mxCell>
        <mxCell id="-sFr-AM_DlU4L2YUzimp-18" value="Проверить, есть ли&amp;nbsp;&lt;span style=&quot;color: light-dark(rgb(0, 0, 0), rgb(255, 255, 255)); background-color: light-dark(#ffffff, var(--ge-dark-color, #121212));&quot;&gt;ставка,&amp;nbsp;&lt;/span&gt;&lt;div&gt;&lt;span style=&quot;color: light-dark(rgb(0, 0, 0), rgb(255, 255, 255)); background-color: light-dark(#ffffff, var(--ge-dark-color, #121212));&quot;&gt;открыть депозит, оформить договор&lt;/span&gt;&lt;/div&gt;" style="endArrow=classic;html=1;rounded=0;entryX=-0.008;entryY=0.141;entryDx=0;entryDy=0;entryPerimeter=0;" edge="1" parent="1" source="-sFr-AM_DlU4L2YUzimp-8" target="-sFr-AM_DlU4L2YUzimp-2">
          <mxGeometry x="-0.1169" y="40" width="50" height="50" relative="1" as="geometry">
            <mxPoint x="110" y="180" as="sourcePoint" />
            <mxPoint x="270" y="180" as="targetPoint" />
            <mxPoint as="offset" />
          </mxGeometry>
        </mxCell>
        <mxCell id="-sFr-AM_DlU4L2YUzimp-19" value="" style="endArrow=classic;html=1;rounded=0;" edge="1" parent="1" source="-sFr-AM_DlU4L2YUzimp-8" target="-sFr-AM_DlU4L2YUzimp-5">
          <mxGeometry width="50" height="50" relative="1" as="geometry">
            <mxPoint x="280" y="410" as="sourcePoint" />
            <mxPoint x="330" y="360" as="targetPoint" />
            <Array as="points">
              <mxPoint x="-140" y="340" />
            </Array>
          </mxGeometry>
        </mxCell>
        <mxCell id="-sFr-AM_DlU4L2YUzimp-20" value="Запросить ставку (для клиента без предварительной записи)" style="edgeLabel;html=1;align=center;verticalAlign=middle;resizable=0;points=[];" vertex="1" connectable="0" parent="-sFr-AM_DlU4L2YUzimp-19">
          <mxGeometry x="0.25" y="1" relative="1" as="geometry">
            <mxPoint as="offset" />
          </mxGeometry>
        </mxCell>
        <mxCell id="-sFr-AM_DlU4L2YUzimp-21" value="" style="endArrow=classic;html=1;rounded=0;exitX=0.992;exitY=0.418;exitDx=0;exitDy=0;exitPerimeter=0;" edge="1" parent="1" source="-sFr-AM_DlU4L2YUzimp-2" target="-sFr-AM_DlU4L2YUzimp-4">
          <mxGeometry width="50" height="50" relative="1" as="geometry">
            <mxPoint x="489" y="318" as="sourcePoint" />
            <mxPoint x="330" y="260" as="targetPoint" />
            <Array as="points">
              <mxPoint x="620" y="480" />
            </Array>
          </mxGeometry>
        </mxCell>
        <mxCell id="-sFr-AM_DlU4L2YUzimp-22" value="Отравить сообщение&amp;nbsp;&lt;div&gt;о готовности ставки&lt;/div&gt;" style="edgeLabel;html=1;align=center;verticalAlign=middle;resizable=0;points=[];" vertex="1" connectable="0" parent="-sFr-AM_DlU4L2YUzimp-21">
          <mxGeometry x="-0.4142" y="1" relative="1" as="geometry">
            <mxPoint x="14" y="-109" as="offset" />
          </mxGeometry>
        </mxCell>
        <mxCell id="-sFr-AM_DlU4L2YUzimp-24" value="Обработать заявку, указать ставку" style="endArrow=classic;html=1;rounded=0;entryX=0;entryY=0.5;entryDx=0;entryDy=0;" edge="1" parent="1" target="-sFr-AM_DlU4L2YUzimp-2">
          <mxGeometry x="-0.1155" y="20" width="50" height="50" relative="1" as="geometry">
            <mxPoint x="101" y="519.5" as="sourcePoint" />
            <mxPoint x="370" y="520.5" as="targetPoint" />
            <mxPoint as="offset" />
          </mxGeometry>
        </mxCell>
        <mxCell id="-sFr-AM_DlU4L2YUzimp-25" value="" style="endArrow=classic;html=1;rounded=0;dashed=1;dashPattern=8 8;" edge="1" parent="1" target="-sFr-AM_DlU4L2YUzimp-1">
          <mxGeometry width="50" height="50" relative="1" as="geometry">
            <mxPoint x="610" y="140" as="sourcePoint" />
            <mxPoint x="380" y="130" as="targetPoint" />
            <Array as="points">
              <mxPoint x="610" y="40" />
            </Array>
          </mxGeometry>
        </mxCell>
        <mxCell id="-sFr-AM_DlU4L2YUzimp-26" value="СМС о рассмотрении обращения" style="edgeLabel;html=1;align=center;verticalAlign=middle;resizable=0;points=[];" vertex="1" connectable="0" parent="-sFr-AM_DlU4L2YUzimp-25">
          <mxGeometry x="-0.0764" relative="1" as="geometry">
            <mxPoint y="10" as="offset" />
          </mxGeometry>
        </mxCell>
        <mxCell id="-sFr-AM_DlU4L2YUzimp-27" value="Анализ общей и специальных ставок" style="endArrow=classic;html=1;rounded=0;entryX=0;entryY=0.5;entryDx=0;entryDy=0;" edge="1" parent="1">
          <mxGeometry x="-0.1155" y="20" width="50" height="50" relative="1" as="geometry">
            <mxPoint x="101" y="694.5" as="sourcePoint" />
            <mxPoint x="370" y="695" as="targetPoint" />
            <mxPoint as="offset" />
          </mxGeometry>
        </mxCell>
        <mxCell id="-sFr-AM_DlU4L2YUzimp-28" value="" style="endArrow=classic;html=1;rounded=0;" edge="1" parent="1" target="-sFr-AM_DlU4L2YUzimp-5">
          <mxGeometry width="50" height="50" relative="1" as="geometry">
            <mxPoint x="40" y="690" as="sourcePoint" />
            <mxPoint x="-130" y="500" as="targetPoint" />
            <Array as="points">
              <mxPoint x="-140" y="690" />
            </Array>
          </mxGeometry>
        </mxCell>
        <mxCell id="-sFr-AM_DlU4L2YUzimp-29" value="Передать общую ставку в Excel&lt;div&gt;Передать специальную ставку&lt;/div&gt;" style="edgeLabel;html=1;align=center;verticalAlign=middle;resizable=0;points=[];" vertex="1" connectable="0" parent="-sFr-AM_DlU4L2YUzimp-28">
          <mxGeometry x="0.25" y="1" relative="1" as="geometry">
            <mxPoint x="1" y="-5" as="offset" />
          </mxGeometry>
        </mxCell>
        <mxCell id="-sFr-AM_DlU4L2YUzimp-30" value="Передать общую&lt;div&gt;&amp;nbsp;и&lt;span style=&quot;background-color: light-dark(#ffffff, var(--ge-dark-color, #121212)); color: light-dark(rgb(0, 0, 0), rgb(255, 255, 255));&quot;&gt;&amp;nbsp;специальную ставки&lt;/span&gt;&lt;/div&gt;" style="endArrow=classic;html=1;rounded=0;" edge="1" parent="1" target="-sFr-AM_DlU4L2YUzimp-5">
          <mxGeometry x="-0.1429" y="-20" width="50" height="50" relative="1" as="geometry">
            <mxPoint x="60" y="520" as="sourcePoint" />
            <mxPoint x="380" y="530" as="targetPoint" />
            <mxPoint as="offset" />
          </mxGeometry>
        </mxCell>
      </root>
    </mxGraphModel>
  </diagram>
</mxfile>
